<svg width="62" height="62" viewBox="0 0 62 62" fill="none" xmlns="http://www.w3.org/2000/svg">
<path d="M4.84379 31.8312V33.9062C4.84533 35.1904 5.35615 36.4216 6.26419 37.3296C7.17224 38.2376 8.40337 38.7485 9.68754 38.75V45.6523C8.77257 45.8866 7.97466 46.447 7.44376 47.2281C6.91287 48.0093 6.68555 48.9574 6.80453 49.8944C6.92351 50.8314 7.3806 51.6926 8.08988 52.3163C8.79916 52.94 9.71181 53.2831 10.6563 53.2812H53.2813C54.2258 53.2831 55.1384 52.94 55.8477 52.3163C56.557 51.6926 57.0141 50.8314 57.133 49.8944C57.252 48.9574 57.0247 48.0093 56.4938 47.2281C55.9629 46.447 55.165 45.8866 54.25 45.6523V42.5998C55.0835 43.2409 56.1047 43.5902 57.1563 43.5938H59.0938C59.2593 43.5947 59.4224 43.5531 59.5673 43.4731C59.7123 43.3931 59.8343 43.2772 59.9217 43.1367C60.0091 42.9961 60.0591 42.8354 60.0668 42.67C60.0745 42.5047 60.0397 42.3401 59.9657 42.192L58.125 38.5214V32.9375C58.1235 31.6533 57.6127 30.4222 56.7046 29.5141C55.7966 28.6061 54.5655 28.0953 53.2813 28.0938H50.375V27.125C50.375 23.2025 47.8679 20.6683 43.6907 20.3438L24.2188 18.4062H14.5313C13.2471 18.4078 12.016 18.9186 11.1079 19.8266C10.1999 20.7347 9.68908 21.9658 9.68754 23.25V27.125H9.54998C9.38058 26.4639 9.03926 25.8595 8.56068 25.373C8.08211 24.8865 7.48332 24.5353 6.82511 24.355C6.16691 24.1748 5.47274 24.172 4.81308 24.3468C4.15342 24.5216 3.55177 24.8679 3.06921 25.3504C2.58666 25.833 2.24039 26.4346 2.06557 27.0943C1.89075 27.7539 1.8936 28.4481 2.07383 29.1063C2.25406 29.7645 2.60525 30.3633 3.09175 30.8419C3.57825 31.3205 4.18272 31.6618 4.84379 31.8312ZM50.375 30.0312H53.2813C54.0521 30.0312 54.7913 30.3374 55.3363 30.8825C55.8813 31.4275 56.1875 32.1667 56.1875 32.9375V38.75C56.1859 38.8999 56.2191 39.0481 56.2844 39.183L57.5264 41.6562H57.1563C56.3855 41.6562 55.6463 41.3501 55.1013 40.805C54.5562 40.26 54.25 39.5208 54.25 38.75V32.9375C54.25 32.6806 54.148 32.4342 53.9663 32.2525C53.7846 32.0708 53.5382 31.9688 53.2813 31.9688H50.375V30.0312ZM49.4063 37.7812C49.6632 37.7812 49.9096 37.6792 50.0913 37.4975C50.273 37.3158 50.375 37.0694 50.375 36.8125V33.9062H52.3125V45.5312H38.75V47.4688H53.2813C53.7951 47.4688 54.288 47.6729 54.6513 48.0362C55.0147 48.3996 55.2188 48.8924 55.2188 49.4062C55.2188 49.9201 55.0147 50.4129 54.6513 50.7763C54.288 51.1396 53.7951 51.3438 53.2813 51.3438H10.6563C10.1424 51.3438 9.64962 51.1396 9.28627 50.7763C8.92292 50.4129 8.71879 49.9201 8.71879 49.4062C8.71879 48.8924 8.92292 48.3996 9.28627 48.0362C9.64962 47.6729 10.1424 47.4688 10.6563 47.4688H27.125V45.5312H11.625V38.75H14.5313C14.6544 38.7501 14.7764 38.7268 14.8907 38.6812L22.7376 35.5415C22.904 35.6078 23.0749 35.6622 23.2491 35.7042V38.75C23.2491 39.7777 23.6573 40.7633 24.384 41.49C25.1107 42.2167 26.0964 42.625 27.1241 42.625C28.1518 42.625 29.1374 42.2167 29.8641 41.49C30.5908 40.7633 30.9991 39.7777 30.9991 38.75V33.9062H36.9792C36.8149 34.3722 36.7716 34.8721 36.8532 35.3594C36.9857 36.0476 37.356 36.6674 37.8994 37.1102C38.4427 37.5529 39.1245 37.7905 39.8254 37.7812H49.4063ZM40.6875 21.9906V23.25C40.6875 23.5069 40.5855 23.7533 40.4038 23.935C40.2221 24.1167 39.9757 24.2188 39.7188 24.2188C39.4619 24.2188 39.2155 24.1167 39.0338 23.935C38.8521 23.7533 38.75 23.5069 38.75 23.25C38.7477 22.7236 38.6009 22.2079 38.3257 21.7591L40.6875 21.9906ZM31 21.0219L33.7058 21.2922C33.2125 21.8249 32.9381 22.524 32.9375 23.25V27.125C32.9375 27.3819 32.8355 27.6283 32.6538 27.81C32.4721 27.9917 32.2257 28.0938 31.9688 28.0938C31.7119 28.0938 31.4655 27.9917 31.2838 27.81C31.1021 27.6283 31 27.3819 31 27.125V21.0219ZM28.1258 30.9196L27.2713 20.6508L29.0625 20.833V27.125C29.0625 27.8958 29.3687 28.635 29.9138 29.18C30.4588 29.7251 31.198 30.0312 31.9688 30.0312C32.7396 30.0312 33.4788 29.7251 34.0238 29.18C34.5688 28.635 34.875 27.8958 34.875 27.125V23.25C34.875 22.9931 34.9771 22.7467 35.1588 22.565C35.3405 22.3833 35.5869 22.2812 35.8438 22.2812C36.1007 22.2812 36.3471 22.3833 36.5288 22.565C36.7105 22.7467 36.8125 22.9931 36.8125 23.25C36.8125 24.0208 37.1187 24.76 37.6638 25.305C38.2088 25.8501 38.948 26.1562 39.7188 26.1562C40.4896 26.1562 41.2288 25.8501 41.7738 25.305C42.3188 24.76 42.625 24.0208 42.625 23.25V22.1892L43.5202 22.2783C45.3608 22.4198 48.4375 23.2355 48.4375 27.1221V35.8408H39.8254C39.5838 35.85 39.3465 35.7755 39.1536 35.6298C38.9607 35.4842 38.8239 35.2764 38.7665 35.0416C38.7422 34.9026 38.7486 34.7599 38.7853 34.6236C38.8219 34.4873 38.8879 34.3606 38.9786 34.2525C39.0693 34.1443 39.1825 34.0573 39.3104 33.9975C39.4383 33.9377 39.5776 33.9065 39.7188 33.9062H45.5313V31.9688H42.0864C41.5313 31.3119 40.8183 30.1804 41.1099 29.4839C41.2455 29.1594 42.036 28.0938 46.5 28.0938V26.1562C42.3896 26.1562 40.0404 27.0029 39.3187 28.7438C39.1384 29.2775 39.0819 29.8452 39.1536 30.404C39.2252 30.9627 39.4232 31.4978 39.7324 31.9688H30.0313C29.7744 31.9688 29.528 32.0708 29.3463 32.2525C29.1646 32.4342 29.0625 32.6806 29.0625 32.9375V38.75C29.0625 39.2639 28.8584 39.7567 28.4951 40.12C28.1317 40.4834 27.6389 40.6875 27.125 40.6875C26.6112 40.6875 26.1184 40.4834 25.755 40.12C25.3917 39.7567 25.1875 39.2639 25.1875 38.75V35.7265C25.9285 35.5588 26.5985 35.1635 27.1037 34.596C27.5232 34.0896 27.831 33.5004 28.0072 32.8669C28.1833 32.2334 28.2237 31.5698 28.1258 30.9196ZM22.3133 31.0804L23.2084 20.3438H24.1694L25.3106 20.4581L26.1999 31.1201C26.2668 31.5039 26.2526 31.8974 26.1581 32.2753C26.0637 32.6532 25.8911 33.0072 25.6516 33.3143C25.4769 33.5096 25.2614 33.6639 25.0202 33.7662C24.7791 33.8685 24.5183 33.9163 24.2566 33.9062C23.995 33.9164 23.7343 33.8686 23.4933 33.7663C23.2523 33.6639 23.0369 33.5096 22.8625 33.3143C22.6194 33.0014 22.4448 32.6407 22.3502 32.2558C22.2556 31.8709 22.243 31.4705 22.3133 31.0804ZM9.54998 29.0625H10.6563C10.9132 29.0625 11.1596 28.9604 11.3413 28.7788C11.523 28.5971 11.625 28.3507 11.625 28.0938V23.25C11.625 22.4792 11.9312 21.74 12.4763 21.195C13.0213 20.6499 13.7605 20.3438 14.5313 20.3438H21.2651L20.3874 30.8799C20.2298 32.0073 20.4743 33.1543 21.0781 34.1194L14.3453 36.8125H11.7132C11.9312 35.3972 12.71 32.9375 15.5 32.9375V31C11.4788 31 10.046 34.3906 9.74954 36.8125H9.68754C8.91676 36.8125 8.17754 36.5063 7.63251 35.9613C7.08748 35.4163 6.78129 34.677 6.78129 33.9062V31.8312C7.44706 31.6571 8.05446 31.3089 8.54106 30.8223C9.02766 30.3357 9.37589 29.7283 9.54998 29.0625ZM5.81254 26.1562C6.19574 26.1562 6.57034 26.2699 6.88896 26.4828C7.20758 26.6957 7.45591 26.9983 7.60256 27.3523C7.7492 27.7063 7.78757 28.0959 7.71281 28.4717C7.63805 28.8476 7.45353 29.1928 7.18256 29.4638C6.9116 29.7347 6.56637 29.9193 6.19053 29.994C5.81469 30.0688 5.42512 30.0304 5.07109 29.8838C4.71706 29.7371 4.41446 29.4888 4.20157 29.1702C3.98867 28.8515 3.87504 28.477 3.87504 28.0938C3.87504 27.5799 4.07917 27.0871 4.44252 26.7237C4.80587 26.3604 5.29868 26.1562 5.81254 26.1562Z" fill="#79C0AA"/>
<path d="M18.4063 27.1249V25.1874C17.5869 25.1183 16.795 24.8584 16.0939 24.4287C15.3928 23.9989 14.8019 23.4111 14.3685 22.7122L12.7565 23.7876C13.3671 24.7511 14.1975 25.5561 15.1797 26.1363C16.1619 26.7164 17.2677 27.0553 18.4063 27.1249Z" fill="#006F63"/>
<path d="M16.4688 27.125H14.5312V29.0625H16.4688V27.125Z" fill="#006F63"/>
<path d="M36.8126 45.5312H34.8751V47.4688H36.8126V45.5312Z" fill="#006F63"/>
<path d="M36.8125 10.6562C36.163 10.6754 35.5186 10.5361 34.9351 10.2503C34.1038 9.87917 33.2036 9.68738 32.2933 9.68738C31.3829 9.68738 30.4828 9.87917 29.6515 10.2503C29.0611 10.5178 28.4203 10.6562 27.7721 10.6562C27.1239 10.6562 26.4832 10.5178 25.8928 10.2503C25.0675 9.85994 24.1627 9.66724 23.25 9.68741V11.6249C23.9001 11.6056 24.5452 11.7449 25.1294 12.0308C25.961 12.4019 26.8615 12.5937 27.7721 12.5937C28.6828 12.5937 29.5832 12.4019 30.4149 12.0308C31.0048 11.7633 31.6451 11.6249 32.2928 11.6249C32.9405 11.6249 33.5808 11.7633 34.1707 12.0308C34.9957 12.4209 35.9002 12.6136 36.8125 12.5937V10.6562Z" fill="#006F63"/>
<path d="M30.3568 13.5624C29.4441 13.5422 28.5393 13.7349 27.714 14.1253C27.1236 14.3928 26.4828 14.5312 25.8346 14.5312C25.1864 14.5312 24.5457 14.3928 23.9553 14.1253C23.13 13.7349 22.2252 13.5422 21.3125 13.5624V15.4999C21.9626 15.4806 22.6077 15.6199 23.1919 15.9058C24.0171 16.2961 24.922 16.4888 25.8346 16.4687C26.7473 16.4888 27.6521 16.2961 28.4774 15.9058C29.0673 15.6383 29.7076 15.4999 30.3553 15.4999C31.003 15.4999 31.6433 15.6383 32.2332 15.9058C33.0582 16.2959 33.9627 16.4886 34.875 16.4687V14.5312C34.2255 14.5504 33.5811 14.4111 32.9976 14.1253C32.173 13.735 31.2688 13.5423 30.3568 13.5624Z" fill="#006F63"/>
</svg>
