<svg width="54" height="54" viewBox="0 0 54 54" fill="none" xmlns="http://www.w3.org/2000/svg">
<g clip-path="url(#clip0_0_22)">
<path d="M34.7175 49.5001C31.644 49.5001 28.7347 47.8824 27.1237 45.2769L24.75 41.4924L22.3717 45.2836C20.7652 47.8824 17.8582 49.5001 14.7825 49.5001C9.84375 49.5001 5.8275 45.4839 5.8275 40.5451C5.8275 40.1041 5.8545 39.6114 5.93325 39.1456L8.046 25.5444C9.13275 18.6751 14.4113 13.0929 21.186 11.6574C21.7913 11.5426 22.3897 11.9161 22.5202 12.5259C22.6507 13.1334 22.2615 13.7296 21.6517 13.8601C15.786 15.1066 11.2095 19.9419 10.269 25.8954L8.154 39.5079C8.0955 39.8611 8.0775 40.2211 8.0775 40.5451C8.0775 44.2441 11.0858 47.2501 14.7825 47.2501C17.082 47.2501 19.2577 46.0419 20.4592 44.0956L23.7937 38.7789C24.2077 38.1241 25.2878 38.1241 25.7017 38.7789L29.0317 44.0889C30.24 46.0419 32.4158 47.2501 34.7175 47.2501C36.6817 47.2501 38.5402 46.3951 39.816 44.9034C41.0917 43.4116 41.6497 41.4451 41.3483 39.5056L40.2457 32.3461C40.1512 31.7341 40.5742 31.1581 41.1862 31.0636C41.7938 30.9759 42.3742 31.3921 42.4688 32.0041L43.5712 39.1614C43.9762 41.7466 43.2315 44.3746 41.526 46.3681C39.8205 48.3571 37.341 49.5001 34.7175 49.5001Z" fill="#79C0AA"/>
<path d="M24.75 40.5001C20.9633 40.5001 18 38.5224 18 36.0001C18 33.4779 20.9633 31.5001 24.75 31.5001C28.5367 31.5001 31.5 33.4779 31.5 36.0001C31.5 38.5224 28.5367 40.5001 24.75 40.5001ZM24.75 33.7501C22.1737 33.7501 20.25 34.9381 20.25 36.0001C20.25 37.0621 22.1737 38.2501 24.75 38.2501C27.3263 38.2501 29.25 37.0621 29.25 36.0001C29.25 34.9381 27.3263 33.7501 24.75 33.7501Z" fill="#006F63"/>
<path d="M24.75 53.9753C21.4538 53.9753 18.1575 52.3733 14.9535 49.1693C14.5147 48.7306 14.5147 48.0173 14.9535 47.5786C15.3922 47.1398 16.1055 47.1398 16.5442 47.5786C22.1423 53.1766 27.3555 53.1766 32.9535 47.5786C33.3923 47.1398 34.1055 47.1398 34.5443 47.5786C34.983 48.0173 34.983 48.7306 34.5443 49.1693C31.3425 52.3733 28.0463 53.9753 24.75 53.9753Z" fill="#79C0AA"/>
<path d="M5.634 40.5001C4.0275 40.5001 2.49525 39.8116 1.42875 38.6101C0.357751 37.4086 -0.148499 35.8021 0.0382508 34.2024L1.323 23.5801C1.87425 19.0486 5.4135 15.4284 9.927 14.7691L15.7545 13.9141C16.3575 13.8421 16.938 14.2494 17.0303 14.8659C17.1203 15.4801 16.695 16.0539 16.0785 16.1439L10.251 16.9989C6.73875 17.5096 3.98475 20.3266 3.555 23.8524L2.2725 34.4701C2.16 35.4286 2.466 36.3916 3.1095 37.1184C3.9465 38.0566 5.31225 38.6079 6.52725 38.0566C7.08525 37.8069 7.76025 38.0589 8.01225 38.6281C8.26425 39.1951 8.01 39.8611 7.44075 40.1131C6.86925 40.3651 6.24375 40.5001 5.634 40.5001Z" fill="#79C0AA"/>
<path d="M43.875 40.5002C43.2652 40.5002 42.6397 40.3652 42.0682 40.111C41.499 39.859 41.2447 39.193 41.4967 38.626C41.7487 38.0567 42.4215 37.8047 42.9817 38.0545C44.199 38.6035 45.5602 38.0545 46.3995 37.1162C47.043 36.3917 47.349 35.4265 47.2342 34.4657L46.899 31.633C46.8247 31.0165 47.2657 30.4562 47.8822 30.382C48.492 30.2852 49.059 30.7442 49.1332 31.3652L49.4707 34.2002C49.6597 35.8022 49.1512 37.4087 48.0825 38.6102C47.0137 39.8117 45.4815 40.5002 43.875 40.5002Z" fill="#79C0AA"/>
<path d="M19.125 27C17.2643 27 15.75 25.4858 15.75 23.625C15.75 21.7642 17.2643 20.25 19.125 20.25C20.9858 20.25 22.5 21.7642 22.5 23.625C22.5 25.4858 20.9858 27 19.125 27ZM19.125 22.5C18.5063 22.5 18 23.0062 18 23.625C18 24.2438 18.5063 24.75 19.125 24.75C19.7438 24.75 20.25 24.2438 20.25 23.625C20.25 23.0062 19.7438 22.5 19.125 22.5Z" fill="#006F63"/>
<path d="M37.125 13.4998C36.7335 13.4998 36.3555 13.2951 36.1463 12.9306C35.838 12.3928 36.027 11.7043 36.5693 11.3961L36.9472 11.1801C38.124 10.5118 38.5582 9.39809 38.025 8.40809C37.728 7.8636 37.9327 7.1796 38.4795 6.88485C39.0195 6.58785 39.708 6.79035 40.0027 7.33935C41.13 9.42284 40.311 11.8596 38.0588 13.1353L37.683 13.3513C37.5052 13.4526 37.314 13.4998 37.125 13.4998Z" fill="#006F63"/>
<path d="M39.375 20.2501C39.276 20.2501 39.1725 20.2366 39.0712 20.2073C38.4705 20.0408 38.124 19.4176 38.2905 18.8213C38.6032 17.7076 39.303 16.8031 40.2615 16.2721C41.283 15.7028 42.5272 15.5926 43.776 15.9616L44.1945 16.0853C44.7907 16.2608 45.1305 16.8863 44.955 17.4826C44.7772 18.0811 44.163 18.4163 43.5577 18.2431L43.1392 18.1193C42.4755 17.9281 41.8455 17.9686 41.3527 18.2408C40.9185 18.4793 40.608 18.8911 40.4595 19.4266C40.32 19.9238 39.8677 20.2501 39.375 20.2501Z" fill="#006F63"/>
<path d="M43.9942 27.0001C43.1572 27.0001 42.3698 26.5388 41.7105 26.1496C41.3078 25.9111 40.7542 25.5848 40.5 25.5848C40.2458 25.5848 39.6945 25.9111 39.2895 26.1473C38.448 26.6446 37.395 27.2566 36.3105 26.8831C35.2058 26.5073 34.7265 25.4093 34.3057 24.4373C34.1167 24.0053 33.858 23.4113 33.6645 23.2628C33.471 23.1188 32.859 23.0423 32.4112 22.9906C31.4415 22.8736 30.2377 22.7296 29.5627 21.7553C28.9102 20.8171 29.133 19.6606 29.3287 18.6413C29.4277 18.1306 29.5493 17.4983 29.4638 17.2216C29.3895 16.9831 28.9395 16.5511 28.6088 16.2361C27.891 15.5521 27 14.6971 27 13.5001C27 12.3031 27.891 11.4481 28.6088 10.7641C28.9373 10.4468 29.3895 10.0171 29.4638 9.77859C29.5493 9.49959 29.4277 8.86734 29.3287 8.35659C29.133 7.33734 28.9103 6.17859 29.565 5.24034C30.24 4.26834 31.4437 4.12434 32.4112 4.00734C32.859 3.95559 33.471 3.87909 33.6645 3.73509C33.8602 3.58659 34.119 2.99034 34.3057 2.55834C34.7287 1.58859 35.2035 0.490592 36.3105 0.110342C37.4085 -0.256408 38.4525 0.353342 39.2895 0.848342C39.6922 1.08909 40.2458 1.41534 40.5 1.41534C40.7542 1.41534 41.3055 1.08909 41.7105 0.852842C42.5498 0.355592 43.5982 -0.260908 44.6895 0.117092C45.7942 0.492842 46.2735 1.59084 46.6943 2.56284C46.8833 2.99484 47.142 3.58884 47.3355 3.73734C47.529 3.88134 48.141 3.95784 48.5887 4.00959C49.5585 4.12659 50.7623 4.27059 51.4373 5.24484C52.0898 6.18309 51.867 7.33959 51.6712 8.35884C51.5723 8.86959 51.4508 9.50184 51.5363 9.77859C51.6105 10.0171 52.0605 10.4491 52.3913 10.7641C53.109 11.4481 54 12.3031 54 13.5001C54 14.6971 53.109 15.5521 52.3913 16.2361C52.0627 16.5533 51.6105 16.9831 51.5363 17.2216C51.4508 17.5006 51.5723 18.1328 51.6712 18.6436C51.867 19.6628 52.0898 20.8216 51.435 21.7598C50.76 22.7318 49.5562 22.8758 48.5887 22.9928C48.141 23.0446 47.529 23.1211 47.3355 23.2651C47.1397 23.4136 46.881 24.0098 46.6943 24.4418C46.2712 25.4116 45.7965 26.5096 44.6895 26.8898C44.4555 26.9663 44.2215 27.0001 43.9942 27.0001ZM37.0192 2.24784C37.0147 2.24784 37.0125 2.24784 37.008 2.25009C36.8527 2.34459 36.5378 3.06684 36.3713 3.45384C36.036 4.22559 35.6895 5.02209 35.0258 5.52834C34.3463 6.04359 33.462 6.14934 32.679 6.24384C32.2808 6.29109 31.5428 6.38109 31.4123 6.52959C31.3065 6.71859 31.4595 7.51059 31.5405 7.93359C31.6935 8.73009 31.8668 9.63009 31.6125 10.4446C31.3673 11.2388 30.7553 11.8216 30.1635 12.3886C29.8215 12.7148 29.25 13.2638 29.25 13.5001C29.25 13.7363 29.8215 14.2853 30.1635 14.6093C30.7553 15.1763 31.365 15.7613 31.6125 16.5556C31.8645 17.3678 31.6935 18.2701 31.5405 19.0643C31.4595 19.4896 31.3065 20.2816 31.4123 20.4728C31.5428 20.6168 32.283 20.7068 32.679 20.7541C33.462 20.8486 34.3463 20.9543 35.0258 21.4718C35.6873 21.9758 36.0337 22.7701 36.369 23.5396C36.5355 23.9288 36.8505 24.6488 37.0463 24.7568C37.215 24.7568 37.8 24.4148 38.1465 24.2078C38.844 23.7983 39.6315 23.3326 40.5 23.3326C41.3708 23.3326 42.1583 23.7983 42.8558 24.2101C43.2045 24.4171 43.7782 24.8581 43.992 24.7478C44.1472 24.6533 44.4622 23.9311 44.6287 23.5441C44.964 22.7723 45.3105 21.9758 45.9743 21.4696C46.6538 20.9543 47.538 20.8486 48.321 20.7541C48.7192 20.7068 49.4572 20.6168 49.5877 20.4683C49.6935 20.2793 49.5405 19.4873 49.4595 19.0643C49.3065 18.2701 49.1355 17.3701 49.3875 16.5533C49.6328 15.7591 50.2447 15.1763 50.8365 14.6093C51.1785 14.2853 51.75 13.7363 51.75 13.5001C51.75 13.2638 51.1785 12.7148 50.8365 12.3908C50.2447 11.8238 49.635 11.2388 49.3875 10.4446C49.1355 9.63234 49.3065 8.73009 49.4595 7.93584C49.5405 7.51059 49.6935 6.71859 49.5877 6.52734C49.4572 6.38334 48.717 6.29334 48.321 6.24609C47.538 6.15159 46.6538 6.04584 45.9743 5.52834C45.3128 5.02434 44.9663 4.23009 44.631 3.46059C44.4645 3.07134 44.1495 2.35134 43.9538 2.24334C43.785 2.24334 43.2 2.58534 42.8535 2.79234C42.156 3.20184 41.3685 3.66759 40.5 3.66759C39.6292 3.66759 38.8417 3.20184 38.1442 2.79009C37.8022 2.58534 37.2285 2.24784 37.0192 2.24784Z" fill="#79C0AA"/>
</g>
<defs>
<clipPath id="clip0_0_22">
<rect width="54" height="54" fill="white"/>
</clipPath>
</defs>
</svg>
