<svg width="52" height="52" viewBox="0 0 52 52" fill="none" xmlns="http://www.w3.org/2000/svg">
<g clip-path="url(#clip0_0_37)">
<path d="M36.2917 51.9978C33.917 51.9978 31.5445 51.4107 29.185 50.2342C28.236 49.7597 27.625 48.7522 27.625 47.6667C27.625 42.887 31.512 39 36.2917 39C41.0713 39 44.9583 42.887 44.9583 47.6667C44.9583 48.7522 44.3473 49.7597 43.3983 50.2342C41.0388 51.4107 38.6663 51.9978 36.2917 51.9978ZM30.1535 48.295C34.2832 50.3555 38.3002 50.3555 42.4298 48.295C42.6465 48.1867 42.7917 47.9353 42.7917 47.6667C42.7917 44.083 39.8753 41.1667 36.2917 41.1667C32.708 41.1667 29.7917 44.083 29.7917 47.6667C29.7917 47.9332 29.9368 48.1867 30.1535 48.295Z" fill="#79C0AA"/>
<path d="M32.5087 36.7728C32.1057 36.7728 31.6983 36.6623 31.3127 36.4478C30.1817 35.8086 29.276 34.2681 28.8925 32.329C28.3877 29.7571 28.8925 26.7823 30.836 26.076C31.4643 25.8485 32.1577 25.9156 32.7817 26.271C33.9148 26.9101 34.8183 28.4485 35.1997 30.3855C35.7067 32.9573 35.204 35.9321 33.2583 36.6406C33.0157 36.7273 32.7643 36.7728 32.5087 36.7728ZM31.72 28.156C31.2238 28.2383 30.5912 29.729 31.018 31.9065C31.3062 33.3625 31.9258 34.3006 32.3787 34.5563C32.8748 34.474 33.5075 32.9811 33.0785 30.8036C32.7903 29.3476 32.1728 28.4095 31.72 28.156Z" fill="#79C0AA"/>
<path d="M40.2545 36.7727C39.9988 36.7727 39.7475 36.7272 39.5027 36.6384C37.5592 35.932 37.0522 32.9572 37.5592 30.3832C37.9427 28.4419 38.8483 26.9057 39.9793 26.2665C40.612 25.9155 41.301 25.8484 41.925 26.0737C43.8707 26.7822 44.3755 29.7549 43.8663 32.3267C43.485 34.268 42.5815 35.8042 41.4483 36.4434C41.067 36.6622 40.6597 36.7727 40.2545 36.7727ZM39.6825 30.8035C39.2557 32.9832 39.8905 34.4739 40.2437 34.6039C40.8373 34.3027 41.457 33.3645 41.743 31.9085C42.172 29.731 41.5372 28.2404 41.184 28.1104C40.5903 28.4094 39.9707 29.3475 39.6825 30.8035Z" fill="#79C0AA"/>
<path d="M24.9037 41.1647C24.4118 41.1647 23.9005 41.0412 23.4022 40.7942C22.5507 40.3738 21.7858 39.6263 21.2463 38.6903C20.7068 37.7543 20.4425 36.7208 20.5032 35.7718C20.5725 34.6777 21.0817 33.7828 21.8942 33.3127C23.4715 32.3983 25.6577 33.3365 26.8753 35.436C27.5708 36.645 27.8005 37.9753 27.4993 39.0912C27.2913 39.8582 26.8515 40.4562 26.2253 40.818C25.8267 41.0498 25.376 41.1647 24.9037 41.1647ZM23.2223 35.1327C23.127 35.1327 23.0425 35.1522 22.9775 35.189C22.8063 35.2887 22.6872 35.5595 22.6655 35.9127C22.6308 36.4283 22.7998 37.0458 23.1205 37.607C23.4433 38.1682 23.8962 38.621 24.362 38.8507C24.6783 39.0088 24.9708 39.037 25.142 38.9417C25.2893 38.855 25.3673 38.6687 25.4042 38.53C25.5212 38.1032 25.4735 37.3492 24.9968 36.5237C24.4487 35.5768 23.686 35.1327 23.2223 35.1327Z" fill="#79C0AA"/>
<path d="M47.6818 41.1644C47.2073 41.1644 46.7567 41.0474 46.358 40.8177C45.734 40.4581 45.2942 39.8622 45.0862 39.0931C44.785 37.9772 45.0147 36.6469 45.7102 35.4401C46.9278 33.3341 49.1162 32.4002 50.6913 33.3146C51.5038 33.7847 52.0108 34.6796 52.0823 35.7737C52.143 36.7227 51.8787 37.7562 51.3392 38.6922C50.7997 39.6282 50.0327 40.3736 49.1833 40.7961C48.6828 41.0387 48.1693 41.1644 47.6818 41.1644ZM49.361 35.1324C48.8973 35.1324 48.1347 35.5766 47.5843 36.5277C47.1077 37.3511 47.0622 38.1051 47.177 38.5319C47.216 38.6706 47.2918 38.8569 47.437 38.9414C47.6168 39.0411 47.905 39.0107 48.2192 38.8526C48.685 38.6229 49.1378 38.1701 49.4607 37.6089C49.7813 37.0477 49.9503 36.4302 49.9157 35.9146C49.894 35.5614 49.777 35.2906 49.6037 35.1909C49.5408 35.1519 49.4563 35.1324 49.361 35.1324Z" fill="#79C0AA"/>
<path d="M17.5067 31.0266C17.238 31.0266 16.9715 30.927 16.7613 30.7276C16.133 30.1361 15.2707 29.9585 14.4603 30.264C13.8948 30.472 13.2751 30.1881 13.065 29.627C12.857 29.0658 13.1408 28.4418 13.702 28.2316C15.288 27.6423 17.03 27.9976 18.2498 29.1568C18.6853 29.5663 18.7027 30.2531 18.291 30.6865C18.0808 30.914 17.7927 31.0266 17.5067 31.0266Z" fill="#006F63"/>
<path d="M14.0833 21.6666C12.2915 21.6666 10.8333 20.2084 10.8333 18.4166C10.8333 16.6248 12.2915 15.1666 14.0833 15.1666C15.8752 15.1666 17.3333 16.6248 17.3333 18.4166C17.3333 20.2084 15.8752 21.6666 14.0833 21.6666ZM14.0833 17.3333C13.4875 17.3333 13 17.8208 13 18.4166C13 19.0124 13.4875 19.4999 14.0833 19.4999C14.6792 19.4999 15.1667 19.0124 15.1667 18.4166C15.1667 17.8208 14.6792 17.3333 14.0833 17.3333Z" fill="#006F63"/>
<path d="M24.9622 25.3717C24.9102 25.3717 24.856 25.3673 24.8062 25.3608C24.2147 25.2742 23.803 24.7238 23.8875 24.1345C24.2688 21.4912 26.5763 19.5 29.25 19.5C29.6573 19.5 30.017 19.539 30.3247 19.6127C30.8165 19.7188 31.1892 20.1522 31.1892 20.67C31.1892 21.268 30.7147 21.7533 30.1167 21.7533H30.095C30.0062 21.7533 29.9173 21.7425 29.8307 21.7187C29.7483 21.7013 29.5663 21.6667 29.25 21.6667C27.6445 21.6667 26.26 22.8605 26.0325 24.4422C25.9545 24.9817 25.4908 25.3717 24.9622 25.3717Z" fill="#006F63"/>
<path d="M24.9167 15.1754C23.504 15.1754 22.0892 14.7312 20.9885 13.845C20.5227 13.468 20.449 12.7855 20.8217 12.3219C21.1965 11.8539 21.8833 11.7824 22.3448 12.1572C23.738 13.2795 26.0932 13.2795 27.4863 12.1572C27.9457 11.7824 28.6325 11.8539 29.0095 12.3219C29.3843 12.7877 29.3107 13.468 28.8448 13.845C27.7442 14.7312 26.3293 15.1754 24.9167 15.1754Z" fill="#006F63"/>
<path d="M12.7595 42.7982C12.2785 42.7982 11.8127 42.7028 11.3793 42.4537C10.1292 41.7213 9.83233 40.144 9.57233 38.7487C9.412 37.8993 9.23217 36.9373 8.89633 36.6037C8.5605 36.27 7.5985 36.0902 6.75133 35.9277C5.356 35.6677 3.77867 35.3708 3.05067 34.1315C2.33567 32.8965 2.8665 31.3842 3.3345 30.0538C3.62483 29.2262 3.95417 28.2923 3.8285 27.8178C3.71583 27.391 2.9575 26.7432 2.34433 26.2232C1.24583 25.2872 0 24.2277 0 22.75C0 21.2723 1.24583 20.2128 2.34433 19.2768C2.95533 18.7568 3.71583 18.109 3.8285 17.6865C3.95633 17.2077 3.62483 16.2738 3.3345 15.4462C2.8665 14.1158 2.33567 12.6035 3.0485 11.375C3.77867 10.1292 5.356 9.83233 6.75133 9.57233C7.60067 9.412 8.56267 9.23217 8.89633 8.89633C9.23 8.5605 9.40983 7.5985 9.57233 6.75133C9.83233 5.356 10.1292 3.77867 11.3685 3.05067C12.61 2.33567 14.1158 2.86867 15.4462 3.3345C16.2738 3.627 17.2185 3.94983 17.6822 3.8285C18.109 3.71583 18.7568 2.9575 19.2768 2.34433C20.2128 1.24583 21.2723 0 22.75 0C24.2277 0 25.2872 1.24583 26.2232 2.34433C26.7432 2.95533 27.391 3.71583 27.8135 3.8285C28.301 3.95417 29.2262 3.62483 30.0538 3.3345C31.3842 2.8665 32.8943 2.33567 34.125 3.0485C35.3708 3.77867 35.6677 5.356 35.9277 6.75133C36.088 7.60067 36.2678 8.56267 36.6037 8.89633C36.9395 9.23 37.9015 9.40983 38.7487 9.57233C40.144 9.83233 41.7213 10.1292 42.4493 11.3685C43.1643 12.6035 42.6335 14.1158 42.1655 15.4462C41.8752 16.2738 41.5458 17.2077 41.6715 17.6822C41.7798 18.0982 42.5208 18.7373 43.1167 19.2552C43.4157 19.513 43.7168 19.773 43.9942 20.0395C44.4253 20.4533 44.4405 21.1402 44.0288 21.5713C43.6172 22.0025 42.9303 22.022 42.497 21.606C42.2457 21.3633 41.9705 21.1272 41.6997 20.8932C40.7918 20.111 39.8537 19.3007 39.5785 18.2347C39.2817 17.1188 39.7085 15.9055 40.1223 14.729C40.404 13.9273 40.7897 12.8267 40.5773 12.4583C40.352 12.0748 39.195 11.8603 38.35 11.7C37.1345 11.4747 35.8778 11.2363 35.0697 10.4282C34.2615 9.62 34.0253 8.36333 33.8 7.15C33.6418 6.305 33.4252 5.148 33.0352 4.92267C32.6712 4.706 31.5727 5.09817 30.771 5.37983C29.5945 5.79367 28.3812 6.22267 27.2588 5.92367C26.1798 5.63767 25.363 4.68 24.5722 3.7505C24.0045 3.081 23.2267 2.16667 22.75 2.16667C22.2733 2.16667 21.4955 3.081 20.9278 3.74833C20.137 4.67783 19.3202 5.63767 18.2368 5.9215C17.1275 6.22267 15.9033 5.79367 14.729 5.37767C13.9252 5.09817 12.8267 4.71033 12.4583 4.92267C12.0748 5.148 11.8603 6.305 11.7 7.15C11.4747 8.36333 11.2385 9.62 10.4282 10.4282C9.61783 11.2363 8.36333 11.4747 7.15 11.7C6.305 11.8603 5.148 12.0748 4.9205 12.4648C4.7125 12.8267 5.09817 13.9273 5.37767 14.729C5.79367 15.9055 6.21833 17.1188 5.9215 18.2412C5.63767 19.3202 4.67783 20.137 3.74833 20.9278C3.081 21.4955 2.16667 22.2733 2.16667 22.75C2.16667 23.2267 3.081 24.0045 3.74833 24.5722C4.67783 25.363 5.6355 26.1798 5.9215 27.2632C6.21833 28.3812 5.7915 29.5945 5.37767 30.771C5.096 31.5727 4.71033 32.6733 4.92267 33.0417C5.148 33.4252 6.305 33.6397 7.15 33.8C8.3655 34.0253 9.62217 34.2637 10.4303 35.0718C11.2385 35.88 11.4747 37.1367 11.7 38.35C11.8582 39.195 12.0748 40.352 12.4648 40.5773C12.8202 40.7875 13.9252 40.4018 14.7268 40.1223C15.0757 39.9988 15.4267 39.8797 15.7668 39.7757C16.419 39.4918 17.29 39.9967 17.29 40.755C17.29 41.2403 16.9693 41.6888 16.5035 41.8188C16.1568 41.9185 15.7993 42.0442 15.4418 42.1698C14.5817 42.471 13.6478 42.7982 12.7595 42.7982Z" fill="#79C0AA"/>
</g>
<defs>
<clipPath id="clip0_0_37">
<rect width="52" height="52" fill="white"/>
</clipPath>
</defs>
</svg>
