<svg width="45" height="45" viewBox="0 0 45 45" fill="none" xmlns="http://www.w3.org/2000/svg">
<g clip-path="url(#clip0_0_58)">
<path d="M43.157 4.56033L43.157 4.56035C42.6793 5.71354 42.5998 6.68629 42.7448 7.61791C42.8884 8.53968 43.2517 9.41679 43.6481 10.3736L43.6521 10.3834C43.6521 10.3834 43.6521 10.3834 43.6521 10.3834C44.5202 12.4795 45.5784 15.0405 44.1468 18.4961L44.1468 18.4961C42.7159 21.9513 40.1567 23.0141 38.0608 23.8824L38.0509 23.8865C37.0941 24.2829 36.2171 24.6462 35.4639 25.1964C34.7026 25.7526 34.071 26.4965 33.5933 27.6496C33.1155 28.8028 33.0359 29.7756 33.1809 30.7072C33.3245 31.629 33.6878 32.5061 34.0842 33.4629L34.0882 33.4727C34.9563 35.5688 36.0145 38.13 34.5829 41.5854C34.3442 42.1613 33.7874 42.5094 33.2001 42.5094C33.0097 42.5094 32.8159 42.4728 32.6283 42.3951C31.8649 42.0789 31.5023 41.2038 31.8186 40.4405L31.6801 40.383L31.8186 40.4405C32.2964 39.2873 32.3759 38.3146 32.2308 37.383C32.0874 36.4615 31.7242 35.5847 31.3281 34.6282L31.3237 34.6176L31.1851 34.675L31.3237 34.6176C30.4554 32.5213 29.3973 29.9601 30.829 26.5045L30.6905 26.4471L30.829 26.5045C32.2604 23.049 34.8196 21.9863 36.9157 21.1179L36.9249 21.1141C37.8819 20.7178 38.759 20.3545 39.5122 19.8041C40.2734 19.248 40.9048 18.504 41.3823 17.351C41.8601 16.198 41.9397 15.2254 41.7947 14.2938C41.6512 13.3722 41.288 12.4953 40.8918 11.5386L40.8876 11.5286L40.7491 11.586L40.8876 11.5286C40.0193 9.43225 38.9609 6.87103 40.3927 3.41518L40.3927 3.41517C40.7089 2.6518 41.5844 2.28938 42.3473 2.60571L42.3474 2.60574C43.1109 2.92191 43.4734 3.79696 43.157 4.56033Z" fill="#79C0AA" stroke="white" stroke-width="0.3"/>
<path d="M10.1415 20.3374L10.1415 20.3373C9.55723 19.7529 8.61017 19.7529 8.02592 20.3371L8.0259 20.3371C6.92113 21.4417 6.3132 22.9093 6.3132 24.4715C6.3132 26.0336 6.92114 27.5015 8.0257 28.606C9.33568 29.916 11.0768 30.6372 12.9293 30.6372C14.782 30.637 16.5229 29.916 17.8329 28.6058L17.9389 28.7119L17.8329 28.6058C21.0666 25.3721 21.0666 20.1098 17.8329 16.8761L17.9389 16.77L17.8329 16.8761C15.9452 14.9882 13.436 13.9488 10.7662 13.9488C8.09636 13.9488 5.58711 14.9882 3.69947 16.8759L3.69947 16.8759C1.41042 19.1647 0.15 22.2077 0.15 25.4448C0.15 28.6822 1.41042 31.7248 3.69946 34.0134L3.69948 34.0134C6.49002 36.8044 10.1996 38.3409 14.146 38.3409C18.0927 38.3409 21.8023 36.8041 24.5928 34.0134L24.6989 34.1194L24.5928 34.0134C25.1771 33.4291 25.1771 32.4818 24.5926 31.8976L24.5926 31.8976C24.0088 31.3136 23.0615 31.3137 22.477 31.898C20.252 34.1233 17.2929 35.349 14.146 35.349C10.9994 35.349 8.04032 34.1233 5.81506 31.8978C4.09151 30.1745 3.14207 27.8823 3.14207 25.4448C3.14207 23.0073 4.0915 20.715 5.81528 18.9917C7.13741 17.6695 8.89622 16.9409 10.7662 16.9409C12.6361 16.9409 14.3949 17.6695 15.7171 18.9917C17.7845 21.059 17.7845 24.4226 15.7171 26.49L10.1415 20.3374ZM10.1415 20.3374C10.7257 20.9214 10.7256 21.8686 10.1413 22.4529C9.60243 22.9918 9.30527 23.7092 9.30527 24.4715C9.30527 25.2338 9.60243 25.9512 10.1415 26.4902L10.1415 20.3374ZM12.9293 27.6451C13.9819 27.6451 14.9726 27.2347 15.7171 26.49L10.1415 26.4902C10.886 27.235 11.8764 27.6451 12.9293 27.6451Z" fill="#79C0AA" stroke="white" stroke-width="0.3"/>
<path d="M29.7418 7.3282C29.7418 8.72001 28.6135 9.84829 27.2217 9.84829C25.8299 9.84829 24.7016 8.72001 24.7016 7.3282C24.7016 5.93639 25.8299 4.80811 27.2217 4.80811C28.6135 4.80811 29.7418 5.93639 29.7418 7.3282Z" fill="#006F63" stroke="white" stroke-width="0.3"/>
<path d="M25.249 13.6022C25.249 14.699 24.3599 15.5881 23.2631 15.5881C22.1663 15.5881 21.2772 14.699 21.2772 13.6022C21.2772 12.5055 22.1663 11.6163 23.2631 11.6163C24.3599 11.6163 25.249 12.5055 25.249 13.6022Z" fill="#006F63" stroke="white" stroke-width="0.3"/>
<path d="M31.1805 10.5477C32.8668 10.5477 34.2342 11.915 34.2342 13.6016C34.2342 15.2892 32.8668 16.6561 31.1805 16.6561C29.4929 16.6561 28.1265 15.289 28.1265 13.6016C28.1265 11.915 29.4931 10.5477 31.1805 10.5477Z" fill="#006F63" stroke="white" stroke-width="0.3"/>
</g>
<defs>
<clipPath id="clip0_0_58">
<rect width="45" height="45" fill="white"/>
</clipPath>
</defs>
</svg>
